<?xml version="1.0" encoding="UTF-8"?>
<svg id="Layer_2" data-name="Layer 2" xmlns="http://www.w3.org/2000/svg" viewBox="0 0 345.17 294.19">
  <defs>
    <style>
      .cls-1, .cls-2 {
        fill: #ffc600;
        stroke-width: 0px;
      }

      .cls-2 {
        fill-rule: evenodd;
      }
    </style>
  </defs>
  <g id="Layer_1-2" data-name="Layer 1">
    <g>
      <g>
        <path class="cls-2" d="m338.37,112.82c-.55,1.53-1.08,3.04-1.64,4.56-.4,1.07-1.23,1.54-2.36,1.68-3.77.44-7.44-.12-11.08-.98-4.59-1.1-8.76-3.04-12.56-5.94-6.78-5.16-14.36-8.81-22.48-11.41-.26-.09-.53-.19-1.13-.39,4.35-.68,8.25-.13,12.11.8,5.33,1.27,10.31,3.45,15.02,6.25,4.26,2.54,8.93,3.63,13.78,4.14,3.48.38,6.92.21,10.34-.51v1.8Z"/>
        <path class="cls-2" d="m338.37,108.44c-4.24-.2-8.48-.25-12.71-.64-5.2-.46-9.87-2.72-14.45-5.08-2.18-1.11-4.35-2.23-6.58-3.22-4.57-2.04-9.29-3.31-14.37-2.2,2.18-1.16,4.54-1.57,6.96-1.67,6.04-.31,11.79,1.01,17.26,3.39,6.37,2.77,13.96,4.03,21.65,2.86.75,2.01,1.49,4.03,2.24,6.05v.51Z"/>
        <path class="cls-2" d="m306.97,70.88c1.82.43,3.66.79,5.47,1.3,1.75.5,3.45,1.16,5.33,1.8-.95,1.82-2.29,2.97-3.8,3.85-3.71,2.16-7.73,3.2-12.02,3.32-5.82.15-10.9,2.33-15.42,5.9-.94.74-1.58,1.86-2.66,3.16.16-1.24.14-2.23.41-3.12.63-2.1,2.23-3.41,4.02-4.5,3.47-2.11,6.98-4.18,10.41-6.36,2.19-1.38,4.1-3.09,5.44-5.36h2.83Z"/>
        <path class="cls-2" d="m244.71,109.48c2.42-4.59,1.06-3.55,6.21-5.27.87-.29,1.73-.98,2.29-1.73,1.69-2.27,3.76-4.06,6.18-5.52.61-.37,1.17-1.03,1.49-1.68,1.11-2.32,3.43-3.05,5.22-4.44.07.08.16.18.23.28-1.16.87-2.39,1.68-3.46,2.64-.66.6-1.28,1.36-1.62,2.19-.41.98-.94,1.65-1.97,2.01-1.63.54-2.84,1.62-3.82,3.08-1.58,2.44-3.5,4.52-6.44,5.4-.71.22-1.36.76-1.9,1.28-.3.26-.32.83-.45,1.25.5.09,1.08.35,1.49.2.75-.28,1.41-.78,2.34-.98-.65.91-1.23,1.85-1.96,2.69-1.04,1.21-1.13,2.42-.3,3.76.85,1.37,1.64,2.8,2.51,4.17.66,1.05,1.66,1.68,2.92,1.52,1.67-.21,3.41-.33,4.97-.91,2.07-.79,2.23-.92,3.66.94-1.47,2.56-3.68,3.43-7.35,2.89-.89-.14-1.75-.35-2.61-.51-1.01,2.85.19,5.05,1.96,7.06.19.21.81.21,1.15.07,1.71-.68,3.38-1.44,5.27-2.02-1.22,1.24-2.37,2.56-3.69,3.69-2.97,2.55-3.92,2.35-5.51-1.22-.63-1.43-1.33-2.97-1.41-4.49-.07-1.55.59-3.11.99-5.02-1.03-1.15-2.44-2.64-3.74-4.21-.42-.5-.84-1.22-.8-1.8.17-1.83-.83-3.05-1.87-4.3v-1.01Z"/>
        <path class="cls-2" d="m298.23,70.88c-.68,2.86-2.42,4.78-4.99,6.19-2.38,1.27-4.64,2.75-6.83,4.33-2.73,1.95-5.2,4.21-5.91,7.94-1.04-2.78-.32-5.72,1.8-8.23,1.37-1.64,2.73-3.3,3.93-5.08.65-.96,1.07-2.15,1.33-3.3.21-.9.66-1.18,1.44-1.28,1.54-.18,3.06-.37,4.58-.56h4.63Z"/>
        <path class="cls-2" d="m274.72,111.05c-1.39,2.31-3.06,4.74-4.41,7.35-4.04,7.8-4.64,15.85-1.79,24.24,3.47,10.18,8.6,19.42,15.57,27.58,1.36,1.61,1.74,2.66.86,4.66-1.66,3.79-1.75,6.97-.92,11.7-.83-.79-1.47-1.34-2.03-1.98-4.12-4.61-7.1-9.97-9.74-15.51-4.29-8.99-7.43-18.33-8.62-28.27-1.01-8.58.3-16.65,5.4-23.86,1.64-2.35,3.61-4.4,5.69-5.91Z"/>
        <path class="cls-2" d="m275.69,114.01c-.97,3.45-1.41,6.88-1.21,10.37.35,6.29,2.39,12.05,5.7,17.39,3.58,5.79,8.18,10.66,13.4,14.97.79.64.94,1.13.35,2-1.84,2.68-3.62,5.4-5.43,8.12-.21-.09-.35-.12-.42-.19-7.25-7.77-13.16-16.37-16.14-26.7-2.61-9-1.9-17.61,3.45-25.58.09-.14.21-.25.3-.38Z"/>
        <path class="cls-2" d="m278.23,112.61c2.24,16.71,11.16,28.69,26.17,36.22-2.46,2.04-4.84,4.04-7.21,6.05-13.67-6.88-24.01-30.03-18.96-42.27Z"/>
        <path class="cls-2" d="m286.98,103.58c3.53,1.6,7.19,2.98,10.58,4.83,4.04,2.21,7.97,4.69,11.75,7.35,5.13,3.61,10.56,6.43,16.83,7.19,2.59.32,5.25.05,8.26.05-1.3,1.41-2.53,2.64-3.61,3.99-1.82,2.27-4,2.62-6.8,2.13-7.43-1.27-13.51-4.89-18.99-9.86-4.59-4.19-9.29-8.26-14-12.31-1.28-1.11-2.75-2.01-4.15-3.01.04-.12.08-.24.13-.36Z"/>
        <path class="cls-2" d="m324.27,132.88c-1.77,1.44-3.58,2.98-5.44,4.37-.46.35-1.31.44-1.86.29-5.11-1.62-9.61-4.35-14.04-7.32-5.27-3.54-8.74-8.46-11.78-13.82-1.21-2.16-2.42-4.33-3.7-6.46-.84-1.33-1.8-2.59-2.81-4.05.61.34,1.2.53,1.62.92,2.01,1.85,4.05,3.68,5.94,5.64,2.8,2.92,5.43,5.96,8.21,8.87,3.96,4.12,8.85,6.86,14.18,8.73,3.12,1.09,6.36,1.88,9.68,2.84Z"/>
        <path class="cls-2" d="m329.1,85.52c-5.29,1.51-10.47,2.73-15.77,3.05-3.79.23-7.62.05-11.41-.15-5.27-.27-10.32.44-15.03,2.98-.19.11-.38.19-.57.28-.03.02-.07-.03-.2-.08.39-1.44,1.33-2.52,2.43-3.46,3.03-2.56,6.67-3.39,10.51-3.59,3.04-.18,6.08,0,9.11-.3,5.08-.5,9.63-2.35,13.13-6.24.66-.73,1.11-.39,1.62,0,2.58,2.01,4.35,4.69,6.2,7.51Z"/>
        <path class="cls-2" d="m282.18,110.79c1.4,2.92,2.67,5.86,4.19,8.67,4.26,7.83,10.31,13.8,18.57,17.38,3.05,1.32,6.05,2.76,9.18,4.19-1.92,1.51-3.79,3-5.73,4.43-.28.19-.9.15-1.25-.02-6.62-3.06-12.78-6.84-16.89-13-4.3-6.47-8.11-13.26-8.15-21.4,0-.08.05-.16.07-.24Z"/>
        <path class="cls-2" d="m287.65,93.98c1.11-.67,2.16-1.47,3.35-1.97,3.1-1.27,6.41-1.64,9.71-1.51,4.66.18,9.34.41,13.96,1.06,5.71.82,11.08.21,16.55-2.44,1.44,2.68,2.87,5.35,4.5,8.39-1.8.35-3.13.72-4.5.9-5.02.6-9.87-.08-14.63-1.84-5.68-2.1-11.6-3.38-17.67-3.72-3.76-.2-7.45.18-10.98,1.53-.09-.14-.19-.28-.28-.4Z"/>
        <path class="cls-2" d="m283.06,73.7c-3.64,4.28-5.48,9.11-5.43,14.71-4.67-2.6-5.65-6.92-2.86-9.95.18-.2.34-.41.54-.55.56-.35,1.11-.65,1.67-.96,2.02-1.09,4.05-2.17,6.08-3.25Z"/>
        <path class="cls-2" d="m265.99,94.27c-.33,1.53-.06,2.04,1.47,2.53.7.24,1.41.36,2.1.59.23.09.54.33.56.52.04.21-.21.54-.42.64-1.91.82-3.84,1.6-5.91,2.18.57-.39,1.14-.82,1.8-1.28-.43-.94.1-2.15-.76-3.21-.24-.32.52-1.43.83-2.18.1.07.21.14.32.21Z"/>
      </g>
      <g>
        <path class="cls-2" d="m8.19,112.82c.54,1.53,1.07,3.04,1.64,4.56.4,1.07,1.22,1.54,2.35,1.68,3.77.44,7.45-.12,11.09-.98,4.59-1.1,8.78-3.04,12.56-5.94,6.78-5.16,14.35-8.81,22.46-11.41.27-.09.53-.19,1.14-.39-4.34-.68-8.25-.13-12.1.8-5.33,1.27-10.32,3.45-15.02,6.25-4.27,2.54-8.94,3.63-13.78,4.14-3.47.38-6.92.21-10.34-.51v1.8Z"/>
        <path class="cls-2" d="m8.19,108.44c4.22-.2,8.48-.25,12.7-.64,5.22-.46,9.87-2.72,14.45-5.08,2.17-1.11,4.36-2.23,6.58-3.22,4.57-2.04,9.29-3.31,14.37-2.2-2.18-1.16-4.55-1.57-6.95-1.67-6.03-.31-11.8,1.01-17.27,3.39-6.37,2.77-13.95,4.03-21.64,2.86-.74,2.01-1.48,4.03-2.23,6.05v.51Z"/>
        <path class="cls-2" d="m39.58,70.88c-1.82.43-3.66.79-5.46,1.3-1.76.5-3.47,1.16-5.33,1.8.96,1.82,2.29,2.97,3.81,3.85,3.7,2.16,7.73,3.2,12,3.32,5.84.15,10.92,2.33,15.43,5.9.95.74,1.58,1.86,2.66,3.16-.16-1.24-.14-2.23-.4-3.12-.63-2.1-2.22-3.41-4.03-4.5-3.47-2.11-6.97-4.18-10.41-6.36-2.18-1.38-4.09-3.09-5.44-5.36h-2.83Z"/>
        <path class="cls-2" d="m101.85,109.48c-2.42-4.59-1.07-3.55-6.22-5.27-.87-.29-1.73-.98-2.29-1.73-1.7-2.27-3.74-4.06-6.18-5.52-.62-.37-1.18-1.03-1.49-1.68-1.11-2.32-3.43-3.05-5.22-4.44-.08.08-.15.18-.24.28,1.16.87,2.38,1.68,3.45,2.64.68.6,1.29,1.36,1.63,2.19.41.98.94,1.65,1.97,2.01,1.64.54,2.84,1.62,3.8,3.08,1.58,2.44,3.52,4.52,6.46,5.4.71.22,1.35.76,1.9,1.28.29.26.31.83.44,1.25-.49.09-1.06.35-1.48.2-.74-.28-1.4-.78-2.35-.98.65.91,1.25,1.85,1.97,2.69,1.05,1.21,1.13,2.42.3,3.76-.84,1.37-1.64,2.8-2.5,4.17-.67,1.05-1.66,1.68-2.92,1.52-1.68-.21-3.42-.33-4.97-.91-2.07-.79-2.23-.92-3.67.94,1.47,2.56,3.68,3.43,7.36,2.89.88-.14,1.74-.35,2.6-.51,1.01,2.85-.19,5.05-1.96,7.06-.18.21-.82.21-1.14.07-1.69-.68-3.37-1.44-5.27-2.02,1.22,1.24,2.37,2.56,3.68,3.69,2.97,2.55,3.92,2.35,5.51-1.22.63-1.43,1.32-2.97,1.4-4.49.07-1.55-.58-3.11-.98-5.02,1.03-1.15,2.43-2.64,3.74-4.21.41-.5.85-1.22.8-1.8-.15-1.83.83-3.05,1.87-4.3v-1.01Z"/>
        <path class="cls-2" d="m48.32,70.88c.69,2.86,2.42,4.78,4.99,6.19,2.36,1.27,4.64,2.75,6.84,4.33,2.73,1.95,5.19,4.21,5.91,7.94,1.03-2.78.3-5.72-1.81-8.23-1.38-1.64-2.76-3.3-3.93-5.08-.66-.96-1.08-2.15-1.34-3.3-.2-.9-.66-1.18-1.44-1.28-1.52-.18-3.06-.37-4.58-.56h-4.64Z"/>
        <path class="cls-2" d="m71.82,111.05c1.41,2.31,3.08,4.74,4.42,7.35,4.05,7.8,4.65,15.85,1.8,24.24-3.47,10.18-8.6,19.42-15.56,27.58-1.36,1.61-1.75,2.66-.87,4.66,1.67,3.79,1.75,6.97.94,11.7.81-.79,1.45-1.34,2.02-1.98,4.13-4.61,7.1-9.97,9.74-15.51,4.28-8.99,7.44-18.33,8.61-28.27,1.02-8.58-.28-16.65-5.38-23.86-1.65-2.35-3.61-4.4-5.72-5.91Z"/>
        <path class="cls-2" d="m70.85,114.01c.97,3.45,1.41,6.88,1.21,10.37-.33,6.29-2.38,12.05-5.69,17.39-3.58,5.79-8.19,10.66-13.4,14.97-.78.64-.95,1.13-.35,2,1.84,2.68,3.61,5.4,5.44,8.12.21-.09.34-.12.41-.19,7.25-7.77,13.15-16.37,16.15-26.7,2.61-9,1.89-17.61-3.46-25.58-.09-.14-.21-.25-.32-.38Z"/>
        <path class="cls-2" d="m68.3,112.61c-2.22,16.71-11.13,28.69-26.14,36.22,2.44,2.04,4.82,4.04,7.21,6.05,13.66-6.88,23.99-30.03,18.93-42.27Z"/>
        <path class="cls-2" d="m59.58,103.58c-3.54,1.6-7.2,2.98-10.59,4.83-4.04,2.21-7.96,4.69-11.75,7.35-5.13,3.61-10.57,6.43-16.83,7.19-2.59.32-5.26.05-8.25.05,1.3,1.41,2.53,2.64,3.61,3.99,1.82,2.27,3.99,2.62,6.8,2.13,7.42-1.27,13.51-4.89,18.98-9.86,4.59-4.19,9.29-8.26,13.99-12.31,1.29-1.11,2.77-2.01,4.16-3.01-.04-.12-.08-.24-.12-.36Z"/>
        <path class="cls-2" d="m22.29,132.88c1.77,1.44,3.56,2.98,5.44,4.37.45.35,1.31.44,1.85.29,5.11-1.62,9.62-4.35,14.04-7.32,5.27-3.54,8.74-8.46,11.78-13.82,1.22-2.16,2.42-4.33,3.72-6.46.82-1.33,1.79-2.59,2.81-4.05-.62.34-1.22.53-1.64.92-2.01,1.85-4.04,3.68-5.95,5.64-2.79,2.92-5.42,5.96-8.21,8.87-3.96,4.12-8.83,6.86-14.18,8.73-3.13,1.09-6.35,1.88-9.67,2.84Z"/>
        <path class="cls-2" d="m17.45,85.52c5.3,1.51,10.48,2.73,15.78,3.05,3.78.23,7.6.05,11.4-.15,5.28-.27,10.33.44,15.04,2.98.18.11.38.19.58.28.03.02.06-.03.19-.08-.37-1.44-1.32-2.52-2.43-3.46-3.02-2.56-6.67-3.39-10.5-3.59-3.03-.18-6.09,0-9.1-.3-5.09-.5-9.65-2.35-13.15-6.24-.65-.73-1.08-.39-1.61,0-2.58,2.01-4.34,4.69-6.21,7.51Z"/>
        <path class="cls-2" d="m64.39,110.79c-1.42,2.92-2.68,5.86-4.2,8.67-4.26,7.83-10.3,13.8-18.56,17.38-3.07,1.32-6.06,2.76-9.21,4.19,1.95,1.51,3.81,3,5.74,4.43.27.19.9.15,1.25-.02,6.6-3.06,12.79-6.84,16.88-13,4.29-6.47,8.11-13.26,8.15-21.4,0-.08-.04-.16-.05-.24Z"/>
        <path class="cls-2" d="m58.9,93.98c-1.11-.67-2.17-1.47-3.36-1.97-3.09-1.27-6.4-1.64-9.7-1.51-4.67.18-9.35.41-13.96,1.06-5.71.82-11.08.21-16.55-2.44-1.46,2.68-2.89,5.35-4.51,8.39,1.78.35,3.14.72,4.51.9,5.02.6,9.85-.08,14.63-1.84,5.68-2.1,11.58-3.38,17.67-3.72,3.76-.2,7.43.18,10.99,1.53.09-.14.19-.28.27-.4Z"/>
        <path class="cls-2" d="m63.5,73.7c3.63,4.28,5.47,9.11,5.41,14.71,4.68-2.6,5.65-6.92,2.86-9.95-.16-.2-.33-.41-.54-.55-.54-.35-1.1-.65-1.67-.96-2.03-1.09-4.05-2.17-6.07-3.25Z"/>
        <path class="cls-2" d="m80.57,94.27c.33,1.53.05,2.04-1.47,2.53-.7.24-1.42.36-2.1.59-.24.09-.56.33-.57.52-.02.21.22.54.43.64,1.9.82,3.84,1.6,5.9,2.18-.57-.39-1.15-.82-1.79-1.28.43-.94-.11-2.15.74-3.21.25-.32-.52-1.43-.81-2.18-.11.07-.22.14-.33.21Z"/>
      </g>
      <g>
        <path class="cls-1" d="m246.75,156.66s-24.53-38.14-4.94-68.12l-24.49-25.3s-26.1,11.27-43.99,10.73c-17.88.54-43.98-10.73-43.98-10.73l-24.49,25.3c19.61,29.98-4.96,68.12-4.96,68.12-25.77,41.89,28.26,61.26,28.26,61.26,39.18,13.2,45.16,25.16,45.16,25.16,0,0,5.99-11.97,45.17-25.16,0,0,54.04-19.37,28.25-61.26Zm-33.28,55.16c-35.46,11.92-40.89,22.75-40.89,22.75,0,0-5.43-10.83-40.9-22.75,0,0-48.91-17.59-25.59-55.48,0,0,22.22-39.09,4.49-66.23l20.09-20.43s25.73,12.26,41.91,11.77c16.17.49,42.83-11.04,42.83-11.04l19.17,19.7c-17.74,27.14,4.47,66.23,4.47,66.23,23.33,37.89-25.58,55.48-25.58,55.48Z"/>
        <path class="cls-1" d="m132.74,74.4c3.64,1.71,24.51,11.1,38.93,11.1.29,0,.61,0,.92,0,.34,0,.66,0,1,0,14.45,0,36.03-8.84,39.68-10.39l16.3,16.26c-6.72,10.73-7.9,25.33-3.39,42.25,3.46,12.95,9.1,22.83,9.15,22.96,5.86,9.49,7.36,18.46,4.49,26.67-5.87,16.79-28.25,24.99-28.45,25.07-27.87,9.38-36.49,18.05-38.78,21.04-2.3-2.99-10.91-11.66-38.76-21.04-.22-.08-22.6-8.28-28.48-25.07-2.87-8.21-1.35-17.18,4.49-26.7.06-.1,5.68-9.98,9.15-22.87,4.52-16.91,3.35-31.47-3.4-42.22l17.16-17.05m-.17-.97l-18.02,17.9c16.93,25.92-5.42,64.81-5.42,64.81-22.27,36.19,24.42,52.94,24.42,52.94,33.86,11.39,39.03,21.72,39.03,21.72,0,0,5.18-10.33,39.02-21.72,0,0,46.69-16.75,24.42-52.94,0,0-22.34-39.01-5.41-64.9l-17.16-17.09s-24.37,10.53-39.88,10.53h-1.91c-15.5,0-39.1-11.25-39.1-11.25h0Z"/>
        <g>
          <path class="cls-1" d="m218.04,18.08c-.79,1.04,1.1,4.18,1.1,4.18l-3.05,4.29c1.94-4.29-.92-7.19-.92-7.19-6.13-5.63-7.12,8.4-7.12,8.4,1.84-3.94,4.18-2.91,4.18-2.91,3.58,1.27.02,6.97.02,6.97-4.79,8.27-8.47,7.9-8.47,7.9-9.54,1.68-10.76-11.91-10.76-11.91-16.78,14.97-18.64-3.02-18.64-3.02-.17-6.17,1.46-8.1,1.46-8.1,3.25-4.36,6.04,3.5,6.04,3.5,6.87-12.2-6.3-9.07-6.3-9.07,3.01-7.24-3.02-11.12-3.02-11.12,0,0-6.05,3.88-3.02,11.12,0,0-13.19-3.12-6.31,9.07,0,0,2.55-6.93,6.05-3.5,0,0,1.53,1.33,1.46,8.1,0,0-1.05,17.65-18.63,3.02,0,0-1.22,13.58-10.77,11.91,0,0-3.67.37-8.45-7.9,0,0-3.56-5.7,0-6.97,0,0,2.36-1.04,4.18,2.91,0,0-.56-14.34-7.22-8.26,0,0-2.74,2.76-.83,7.05l-3.02-4.29s1.87-3.14,1.1-4.18c-.79-1.02-6.11-2.71-8.12-2.48-.6.08,21.41,37.48,21.41,37.48,0,0,11.25-9.29,32.17-8.58,20.92-.71,32.16,8.58,32.16,8.58,0,0,22.01-37.4,21.41-37.48-2-.23-7.32,1.46-8.11,2.48Z"/>
          <path class="cls-1" d="m140.91,57.17c-.13,0-.24-.04-.39-.08l.79-2.32-.4,1.15-.47-1.1c.05-.04.17-.13.36-.21,9.22-5.3,33.91-15.86,63.83.24l-1.14,2.13c-28.86-15.51-52.61-5.35-61.49-.25-.44.25-.74.43-1.1.43Z"/>
        </g>
        <g>
          <path class="cls-1" d="m45.19,239.57s.15.19.33.47c.2.29.4.71.54,1.11.14.42.23.86.28,1.22.02.34,0,.57,0,.57,0,0-.17-.19-.34-.45-.17-.32-.37-.72-.53-1.13-.12-.42-.23-.87-.25-1.21-.04-.34-.02-.58-.02-.58Z"/>
          <path class="cls-1" d="m46.4,237.35s.22.36.48.9c.27.51.57,1.25.82,2,.27.76.46,1.52.59,2.1.11.58.13,1,.13,1,0,0-.2-.33-.45-.86-.29-.54-.57-1.28-.83-2.03-.25-.76-.45-1.5-.59-2.1-.1-.6-.14-1.01-.14-1.01Z"/>
          <path class="cls-1" d="m47.5,236.04s.28.38.64,1.04c.36.63.8,1.51,1.17,2.4.39.89.72,1.8.94,2.49.21.7.32,1.17.32,1.17,0,0-.27-.41-.62-1.04-.38-.65-.79-1.5-1.18-2.4-.38-.88-.71-1.79-.92-2.49-.23-.71-.34-1.17-.34-1.17Z"/>
          <path class="cls-1" d="m48.71,233.81s.33.58.77,1.46c.46.88,1,2.08,1.48,3.29.5,1.21.96,2.46,1.25,3.38.3.97.45,1.6.45,1.6,0,0-.33-.55-.79-1.45-.43-.88-.98-2.08-1.48-3.28-.48-1.22-.92-2.47-1.22-3.41-.29-.95-.46-1.59-.46-1.59Z"/>
          <path class="cls-1" d="m49.87,232.68s.4.64.93,1.62c.53.99,1.21,2.34,1.81,3.69.62,1.35,1.2,2.74,1.6,3.79.39,1.06.6,1.78.6,1.78,0,0-.4-.63-.94-1.62-.52-.99-1.2-2.33-1.82-3.68-.61-1.39-1.17-2.75-1.58-3.8-.38-1.06-.61-1.77-.61-1.77Z"/>
          <path class="cls-1" d="m51.36,231.45s.41.69.97,1.76c.27.55.6,1.17.94,1.86.32.7.65,1.41.99,2.14.29.74.64,1.48.93,2.18.28.71.52,1.38.73,1.94.43,1.13.67,1.89.67,1.89,0,0-.42-.69-.96-1.78-.28-.53-.61-1.15-.94-1.82-.33-.67-.65-1.43-.99-2.16-.33-.75-.64-1.49-.92-2.18-.29-.69-.52-1.35-.75-1.92-.42-1.12-.66-1.91-.66-1.91Z"/>
          <path class="cls-1" d="m52.34,230.13s.49.75,1.15,1.93c.32.58.72,1.25,1.09,2.01.41.73.8,1.54,1.22,2.34.38.78.77,1.61,1.13,2.35.35.77.65,1.49.93,2.1.52,1.24.84,2.07.84,2.07,0,0-.48-.73-1.15-1.91-.32-.58-.7-1.27-1.1-2.02-.39-.74-.79-1.54-1.19-2.32-.39-.83-.79-1.62-1.12-2.38-.37-.76-.66-1.49-.95-2.09-.55-1.23-.85-2.08-.85-2.08Z"/>
          <path class="cls-1" d="m53.9,228.74s.48.85,1.16,2.12c.35.65.76,1.38,1.14,2.18.42.81.84,1.66,1.25,2.54.41.84.81,1.74,1.18,2.55.36.82.69,1.6.96,2.26.57,1.35.88,2.27.88,2.27,0,0-.51-.84-1.17-2.11-.34-.65-.75-1.38-1.15-2.18-.41-.81-.83-1.68-1.24-2.54-.4-.88-.8-1.75-1.18-2.58-.37-.82-.67-1.6-.97-2.28-.54-1.31-.85-2.24-.85-2.24Z"/>
          <path class="cls-1" d="m55.5,227.79s.53.86,1.22,2.19c.33.65.74,1.41,1.16,2.25.4.82.84,1.72,1.27,2.63.42.88.83,1.79,1.2,2.62.38.86.7,1.65,1,2.35.56,1.38.88,2.33.88,2.33,0,0-.51-.86-1.2-2.19-.32-.64-.75-1.43-1.16-2.25-.42-.82-.82-1.73-1.27-2.61-.39-.9-.82-1.8-1.18-2.65-.38-.86-.7-1.65-.99-2.34-.57-1.37-.91-2.32-.91-2.32Z"/>
          <path class="cls-1" d="m57.21,226.66s.54.92,1.27,2.3c.38.71.82,1.53,1.27,2.42.45.89.9,1.83,1.37,2.78.44.98.89,1.94,1.31,2.84.41.92.75,1.75,1.05,2.49.63,1.47.99,2.45.99,2.45,0,0-.54-.9-1.29-2.32-.35-.67-.82-1.51-1.24-2.38-.47-.9-.91-1.85-1.38-2.81-.44-.93-.9-1.92-1.29-2.83-.41-.89-.78-1.76-1.07-2.47-.62-1.47-.98-2.46-.98-2.46Z"/>
          <path class="cls-1" d="m58.7,225.82s.54.92,1.3,2.33c.35.73.79,1.55,1.26,2.43.44.93.89,1.87,1.36,2.82.45.97.9,1.94,1.29,2.86.41.91.77,1.76,1.09,2.49.6,1.48.97,2.51.97,2.51,0,0-.53-.94-1.29-2.35-.37-.72-.79-1.54-1.24-2.43-.45-.9-.91-1.84-1.37-2.81-.44-.98-.9-1.95-1.3-2.86-.4-.91-.74-1.79-1.08-2.5-.62-1.51-.98-2.5-.98-2.5Z"/>
          <path class="cls-1" d="m60.25,224.76s.57.97,1.36,2.45c.4.76.87,1.61,1.34,2.55.48.94.97,1.96,1.45,2.96.48,1.02.98,2.02,1.4,2.98.44.96.81,1.87,1.15,2.65.66,1.55,1.07,2.6,1.07,2.6,0,0-.57-.99-1.37-2.47-.41-.74-.87-1.6-1.34-2.55-.49-.94-.98-1.92-1.45-2.94-.48-1.03-.98-2.05-1.41-3-.44-.95-.8-1.86-1.14-2.64-.67-1.54-1.07-2.59-1.07-2.59Z"/>
          <path class="cls-1" d="m61.52,223.65s.59,1.01,1.42,2.54c.42.77.9,1.66,1.39,2.63.51.98,1,2.01,1.54,3.05.49,1.06,1,2.09,1.45,3.09.47.99.88,1.91,1.22,2.72.69,1.58,1.11,2.66,1.11,2.66,0,0-.58-.97-1.41-2.51-.41-.77-.9-1.67-1.39-2.63-.51-.96-1.02-2.01-1.53-3.05-.5-1.04-1.02-2.11-1.46-3.09-.46-.99-.86-1.91-1.21-2.7-.7-1.6-1.12-2.7-1.12-2.7Z"/>
          <path class="cls-1" d="m62.97,222.91s.6,1.04,1.44,2.62c.41.78.91,1.71,1.4,2.71.5.97,1.01,2.06,1.54,3.11.5,1.09,1.01,2.16,1.49,3.17.44,1.03.86,1.98,1.21,2.79.69,1.65,1.12,2.74,1.12,2.74,0,0-.6-1-1.43-2.58-.42-.8-.91-1.69-1.41-2.72-.5-.97-1.02-2.07-1.54-3.11-.51-1.09-1.02-2.16-1.47-3.18-.46-1.02-.89-1.96-1.23-2.8-.7-1.62-1.13-2.75-1.13-2.75Z"/>
          <path class="cls-1" d="m142.43,255.02s-.08.55-.24,1.38c-.18.8-.43,1.85-.74,2.92-.32,1.06-.69,2.11-.98,2.87-.3.75-.56,1.27-.56,1.27,0,0,.06-.57.22-1.36.16-.83.44-1.89.74-2.95.32-1.06.68-2.08,1.01-2.85.31-.78.56-1.28.56-1.28Z"/>
          <path class="cls-1" d="m140.6,256.52s-.03.42-.13,1.03c-.1.63-.28,1.43-.52,2.22-.23.78-.52,1.55-.77,2.1-.26.57-.46.96-.46.96,0,0,.03-.44.13-1.06.09-.6.29-1.4.51-2.19.24-.77.53-1.56.79-2.12.23-.57.44-.94.44-.94Z"/>
          <path class="cls-1" d="m143.73,254.32s-.08.62-.27,1.57c-.17.94-.49,2.18-.84,3.43-.34,1.22-.74,2.43-1.08,3.33-.35.9-.59,1.49-.59,1.49,0,0,.06-.65.25-1.58.18-.95.49-2.19.85-3.43.34-1.22.75-2.44,1.08-3.32.33-.9.61-1.49.61-1.49Z"/>
          <path class="cls-1" d="m144.92,254.06s-.08.66-.27,1.68c-.18,1-.48,2.32-.84,3.65-.35,1.31-.73,2.59-1.08,3.56-.34.98-.61,1.62-.61,1.62,0,0,.1-.69.27-1.69.19-1.01.49-2.33.84-3.66.34-1.3.74-2.6,1.08-3.57.33-.94.61-1.59.61-1.59Z"/>
          <path class="cls-1" d="m145.79,254.16s-.06.7-.25,1.76c-.17,1.03-.45,2.41-.78,3.8-.34,1.35-.7,2.7-1.04,3.72-.32,1-.58,1.65-.58,1.65,0,0,.08-.69.25-1.74.17-1.05.44-2.42.78-3.79.32-1.35.7-2.73,1.03-3.73.33-1.03.58-1.68.58-1.68Z"/>
          <path class="cls-1" d="m147.07,254.39s-.07.72-.28,1.8c-.19,1.04-.5,2.44-.86,3.82-.37,1.4-.78,2.77-1.11,3.79-.35,1.02-.62,1.69-.62,1.69,0,0,.09-.71.28-1.78.18-1.05.5-2.44.86-3.84.36-1.39.77-2.76,1.11-3.78.34-1.04.62-1.7.62-1.7Z"/>
          <path class="cls-1" d="m148.24,254.71s-.07.69-.26,1.78c-.18,1.06-.46,2.49-.8,3.88-.34,1.39-.73,2.8-1.06,3.81-.35,1.05-.62,1.73-.62,1.73,0,0,.1-.73.27-1.79.19-1.07.47-2.48.82-3.89.33-1.41.74-2.79,1.06-3.83.33-1.03.6-1.7.6-1.7Z"/>
          <path class="cls-1" d="m149.48,255.04s-.09.74-.25,1.8c-.17,1.08-.47,2.49-.8,3.9-.34,1.41-.72,2.82-1.04,3.85-.34,1.02-.61,1.74-.61,1.74,0,0,.08-.75.27-1.81.15-1.08.46-2.51.78-3.9.35-1.44.73-2.81,1.06-3.83.33-1.06.58-1.75.58-1.75Z"/>
          <path class="cls-1" d="m150.52,255.39s-.07.72-.24,1.75c-.18,1.06-.45,2.45-.79,3.83-.34,1.36-.71,2.74-1.04,3.74-.34,1.04-.6,1.69-.6,1.69,0,0,.1-.7.26-1.76.19-1.04.46-2.43.8-3.8.33-1.38.7-2.74,1.04-3.76.31-1.01.57-1.68.57-1.68Z"/>
          <path class="cls-1" d="m151.64,255.81s-.06.72-.24,1.81c-.19,1.06-.45,2.49-.79,3.92-.34,1.4-.7,2.81-1.05,3.86-.32,1.04-.58,1.73-.58,1.73,0,0,.08-.74.25-1.82.16-1.08.47-2.49.78-3.93.36-1.4.71-2.81,1.04-3.87.32-1.02.59-1.71.59-1.71Z"/>
          <path class="cls-1" d="m152.47,256.17s-.04.72-.19,1.76c-.14,1.06-.38,2.45-.7,3.81-.29,1.37-.63,2.76-.92,3.78-.29.99-.54,1.68-.54,1.68,0,0,.04-.71.19-1.77.14-1.05.38-2.43.69-3.8.29-1.39.63-2.75.93-3.77.3-1.03.54-1.69.54-1.69Z"/>
          <path class="cls-1" d="m153.47,256.52s-.06.71-.21,1.73c-.15,1.06-.41,2.42-.7,3.77-.3,1.37-.66,2.72-.96,3.72-.31,1.01-.55,1.65-.55,1.65,0,0,.05-.71.21-1.71.15-1.05.39-2.41.71-3.78.29-1.36.63-2.72.95-3.7.3-1.03.55-1.68.55-1.68Z"/>
          <path class="cls-1" d="m154.68,257.23s-.06.65-.2,1.64c-.14,1.01-.38,2.3-.66,3.6-.29,1.31-.63,2.59-.92,3.54-.29.97-.52,1.59-.52,1.59,0,0,.06-.66.19-1.65.15-.99.37-2.31.67-3.59.3-1.3.62-2.59.92-3.55.32-.96.54-1.58.54-1.58Z"/>
          <path class="cls-1" d="m155.71,257.59s-.04.67-.2,1.65c-.14.99-.38,2.29-.68,3.59-.29,1.27-.63,2.55-.92,3.51-.29.96-.53,1.55-.53,1.55,0,0,.07-.65.2-1.63.14-.99.38-2.28.66-3.57.29-1.31.63-2.58.95-3.53.27-.95.52-1.57.52-1.57Z"/>
          <path class="cls-1" d="m156.58,258.3s-.03.63-.12,1.57c-.12.93-.32,2.16-.56,3.42-.24,1.21-.55,2.41-.81,3.32-.26.92-.46,1.5-.46,1.5,0,0,.04-.63.13-1.56.1-.94.29-2.19.55-3.4.24-1.22.52-2.45.79-3.34.27-.92.48-1.51.48-1.51Z"/>
          <path class="cls-1" d="m157.53,258.91s0,.6-.1,1.51c-.08.86-.28,2.05-.49,3.19-.22,1.16-.48,2.34-.75,3.17-.23.86-.44,1.41-.44,1.41,0,0,.01-.59.1-1.49.1-.88.27-2.05.51-3.21.21-1.17.48-2.32.73-3.16.26-.85.44-1.43.44-1.43Z"/>
          <path class="cls-1" d="m158.52,259.42s-.02.59-.11,1.43c-.09.85-.25,1.96-.48,3.07-.24,1.08-.51,2.19-.77,3-.24.81-.45,1.34-.45,1.34,0,0,.02-.59.11-1.4.1-.87.29-1.98.5-3.07.24-1.11.49-2.2.74-3.01.26-.81.46-1.36.46-1.36Z"/>
          <path class="cls-1" d="m159.44,260.16s-.02.53-.1,1.3c-.06.77-.22,1.81-.43,2.82-.2,1-.44,2-.66,2.74-.24.75-.44,1.24-.44,1.24,0,0,0-.51.08-1.31.08-.76.23-1.78.44-2.81.2-1,.45-2,.68-2.76.23-.74.43-1.22.43-1.22Z"/>
          <path class="cls-1" d="m160.37,260.9s0,.48-.04,1.17c-.06.71-.19,1.64-.36,2.56-.19.92-.4,1.82-.63,2.53-.21.66-.37,1.09-.37,1.09,0,0-.02-.48.04-1.19.06-.68.18-1.62.35-2.54.19-.94.42-1.84.62-2.52.22-.66.4-1.11.4-1.11Z"/>
          <path class="cls-1" d="m161.29,261.69s.02.41-.03,1.06c-.04.61-.16,1.43-.33,2.25-.16.82-.38,1.62-.59,2.23-.2.59-.36.97-.36.97,0,0-.02-.42.02-1.03.06-.62.18-1.46.34-2.28.16-.81.38-1.62.58-2.23.22-.59.38-.97.38-.97Z"/>
          <path class="cls-1" d="m162.08,262.48s.04.39,0,.91c-.03.54-.09,1.22-.24,1.92-.14.68-.31,1.35-.48,1.86-.21.5-.38.83-.38.83,0,0,0-.37,0-.9.05-.52.14-1.22.27-1.92.13-.67.31-1.37.49-1.86.2-.48.34-.83.34-.83Z"/>
          <path class="cls-1" d="m162.91,263.73s.05.25.07.62c.03.37,0,.85-.1,1.33-.07.47-.19.94-.35,1.27-.13.35-.27.59-.27.59,0,0-.04-.26-.07-.62-.01-.38.03-.87.1-1.34.07-.47.21-.95.33-1.28.16-.36.28-.57.28-.57Z"/>
          <path class="cls-1" d="m65.08,221.94s.58,1.06,1.36,2.7c.39.8.85,1.76,1.32,2.76.49,1.04.97,2.14,1.45,3.23.47,1.13.95,2.22,1.37,3.25.43,1.05.82,2.04,1.16,2.87.64,1.69,1.03,2.83,1.03,2.83,0,0-.58-1.06-1.36-2.69-.39-.82-.85-1.75-1.33-2.8-.45-1.01-.95-2.11-1.43-3.21-.47-1.1-.94-2.23-1.36-3.25-.44-1.04-.81-2.03-1.15-2.87-.66-1.69-1.06-2.82-1.06-2.82Z"/>
          <path class="cls-1" d="m92.93,219.38s.26.41.62,1.08c.36.66.77,1.56,1.14,2.47.4.94.7,1.85.93,2.57.21.72.3,1.22.3,1.22,0,0-.28-.42-.64-1.08-.34-.67-.77-1.55-1.13-2.47-.39-.92-.72-1.84-.93-2.56-.2-.72-.3-1.22-.3-1.22Z"/>
          <path class="cls-1" d="m95.38,220.33s.21.3.49.78c.27.45.59,1.08.85,1.73.27.66.49,1.33.63,1.87.12.51.16.88.16.88,0,0-.21-.3-.49-.77-.28-.44-.6-1.08-.86-1.73-.27-.66-.47-1.31-.61-1.85-.15-.51-.17-.9-.17-.9Z"/>
          <path class="cls-1" d="m90.94,218.7s.33.57.79,1.42c.44.87.98,2.04,1.47,3.21.48,1.18.95,2.4,1.26,3.32.29.93.44,1.55.44,1.55,0,0-.35-.54-.78-1.43-.45-.85-.99-2.02-1.48-3.21-.48-1.18-.95-2.38-1.23-3.31-.3-.91-.47-1.55-.47-1.55Z"/>
          <path class="cls-1" d="m89.16,218.13s.35.66.82,1.7c.47,1.06,1.04,2.45,1.58,3.86.51,1.44,1,2.87,1.32,3.96.32,1.1.51,1.87.51,1.87,0,0-.36-.7-.83-1.74-.48-1.03-1.04-2.45-1.57-3.88-.54-1.42-1.01-2.85-1.33-3.95-.32-1.09-.5-1.82-.5-1.82Z"/>
          <path class="cls-1" d="m86.88,217.84s.41.78.98,1.94c.29.6.61,1.28.93,2.02.34.76.67,1.56,1.02,2.37.32.81.64,1.62.92,2.39.3.78.55,1.5.75,2.12.44,1.23.69,2.07.69,2.07,0,0-.42-.76-1-1.93-.27-.59-.61-1.3-.95-2.05-.32-.75-.66-1.55-.99-2.35-.33-.83-.65-1.63-.93-2.41-.28-.75-.54-1.49-.75-2.1-.44-1.24-.68-2.08-.68-2.08Z"/>
          <path class="cls-1" d="m85.43,217.67s.41.86.97,2.19c.27.67.61,1.41.94,2.25.34.84.68,1.72,1.01,2.63.31.9.65,1.77.93,2.63.28.86.53,1.66.75,2.33.43,1.39.67,2.33.67,2.33,0,0-.43-.89-.99-2.2-.28-.67-.62-1.43-.93-2.25-.33-.85-.68-1.73-1.01-2.63-.32-.9-.65-1.8-.93-2.63-.3-.84-.52-1.65-.75-2.36-.42-1.34-.66-2.29-.66-2.29Z"/>
          <path class="cls-1" d="m83.35,217.61s.44.95,1.08,2.39c.29.75.67,1.57,1.01,2.48.37.92.74,1.89,1.11,2.88.35.99.71,1.97,1.04,2.89.31.9.59,1.78.82,2.52.48,1.52.75,2.52.75,2.52,0,0-.45-.96-1.07-2.4-.28-.72-.68-1.57-1.03-2.48-.36-.91-.72-1.88-1.08-2.85-.36-.99-.73-1.97-1.05-2.89-.31-.92-.59-1.8-.84-2.56-.46-1.49-.75-2.51-.75-2.51Z"/>
          <path class="cls-1" d="m81.79,217.61s.46,1.02,1.08,2.54c.29.76.66,1.65,1.01,2.61.36.97.74,1.99,1.11,3.03.35,1.04.71,2.08,1.02,3.05.33.98.59,1.9.83,2.68.49,1.58.75,2.63.75,2.63,0,0-.44-.99-1.07-2.5-.29-.78-.68-1.67-1.02-2.63-.36-.97-.73-1.98-1.11-3.02-.35-1.04-.71-2.08-1.02-3.05-.31-.98-.59-1.91-.84-2.69-.46-1.57-.75-2.65-.75-2.65Z"/>
          <path class="cls-1" d="m79.75,217.84s.48,1.03,1.13,2.61c.34.79.72,1.73,1.1,2.71.38.99.79,2.06,1.19,3.14.38,1.07.76,2.14,1.12,3.16.33,1.01.63,1.95.89,2.78.52,1.61.82,2.74.82,2.74,0,0-.49-1.04-1.13-2.64-.31-.81-.72-1.71-1.1-2.71-.38-1.01-.79-2.05-1.19-3.14-.37-1.06-.76-2.13-1.09-3.16-.34-.99-.66-1.94-.92-2.76-.51-1.62-.82-2.73-.82-2.73Z"/>
          <path class="cls-1" d="m77.75,217.84s.51,1.07,1.23,2.7c.34.83.75,1.78,1.18,2.82.41,1.03.84,2.14,1.28,3.23.4,1.13.84,2.23,1.21,3.28.38,1.05.7,2.03,1,2.87.57,1.7.9,2.84.9,2.84,0,0-.51-1.07-1.22-2.7-.35-.82-.76-1.76-1.18-2.82-.44-1.03-.86-2.14-1.3-3.25-.41-1.1-.83-2.21-1.2-3.26-.38-1.05-.7-2.04-.99-2.88-.58-1.7-.92-2.83-.92-2.83Z"/>
          <path class="cls-1" d="m75.81,218.37s.53,1.1,1.25,2.75c.34.82.78,1.77,1.21,2.81.44,1.04.88,2.15,1.32,3.25.43,1.13.87,2.24,1.26,3.3.37,1.04.73,2.05,1.02,2.9.59,1.69.96,2.84.96,2.84,0,0-.54-1.08-1.27-2.72-.37-.83-.79-1.77-1.22-2.82-.44-1.05-.88-2.15-1.31-3.28-.43-1.1-.87-2.22-1.26-3.26-.37-1.06-.72-2.06-1.02-2.9-.59-1.7-.93-2.87-.93-2.87Z"/>
          <path class="cls-1" d="m74.21,218.98s.52,1.08,1.22,2.72c.35.82.77,1.78,1.18,2.81.41,1.05.85,2.18,1.29,3.26.42,1.11.85,2.24,1.21,3.3.39,1.03.71,2.02.99,2.88.58,1.7.92,2.84.92,2.84,0,0-.51-1.09-1.22-2.71-.34-.84-.77-1.79-1.18-2.84-.43-1.02-.86-2.13-1.28-3.25-.43-1.11-.85-2.22-1.22-3.27-.37-1.06-.71-2.04-.99-2.88-.59-1.72-.92-2.86-.92-2.86Z"/>
          <path class="cls-1" d="m72.42,219.49s.54,1.08,1.24,2.72c.35.83.77,1.8,1.21,2.84.42,1.02.86,2.14,1.3,3.27.41,1.11.85,2.23,1.23,3.28.39,1.05.73,2.05,1.03,2.9.57,1.7.93,2.86.93,2.86,0,0-.53-1.08-1.25-2.72-.35-.85-.78-1.8-1.2-2.83-.42-1.05-.86-2.17-1.29-3.28-.42-1.11-.86-2.25-1.24-3.27-.4-1.07-.72-2.06-1.04-2.9-.58-1.73-.92-2.86-.92-2.86Z"/>
          <path class="cls-1" d="m70.77,219.73s.54,1.12,1.25,2.79c.36.85.78,1.85,1.2,2.88.43,1.08.88,2.22,1.3,3.34.44,1.13.86,2.3,1.24,3.35.39,1.08.71,2.1,1.02,2.96.57,1.73.91,2.93.91,2.93,0,0-.51-1.12-1.21-2.79-.37-.86-.77-1.82-1.21-2.9-.43-1.08-.86-2.19-1.31-3.33-.43-1.14-.87-2.27-1.24-3.36-.39-1.08-.7-2.09-1.02-2.96-.58-1.73-.93-2.91-.93-2.91Z"/>
          <path class="cls-1" d="m69.28,220.38s.55,1.06,1.24,2.71c.35.82.77,1.77,1.2,2.81.42,1.04.86,2.15,1.3,3.24.42,1.11.85,2.24,1.23,3.3.38,1.03.72,2.01,1.02,2.86.56,1.71.92,2.85.92,2.85,0,0-.54-1.08-1.24-2.73-.36-.82-.77-1.77-1.2-2.81-.42-1.01-.86-2.14-1.3-3.22-.42-1.13-.84-2.25-1.23-3.3-.38-1.03-.7-2.02-1-2.86-.58-1.69-.93-2.85-.93-2.85Z"/>
          <path class="cls-1" d="m67.17,221.37s.57,1.07,1.35,2.71c.39.81.84,1.75,1.31,2.77.49,1.05.95,2.14,1.44,3.24.47,1.1.93,2.22,1.36,3.27.42,1.04.8,2.01,1.11,2.86.65,1.7,1.04,2.82,1.04,2.82,0,0-.57-1.06-1.35-2.69-.38-.81-.83-1.76-1.3-2.79-.46-1.03-.95-2.12-1.42-3.23-.47-1.12-.94-2.22-1.37-3.25-.42-1.05-.78-2.03-1.12-2.9-.65-1.67-1.05-2.81-1.05-2.81Z"/>
          <path class="cls-1" d="m177.31,280.2s-.04.1-.08.16c-.04.08-.11.14-.18.14-.08,0-.15-.05-.18-.14-.05-.06-.1-.16-.1-.16,0,0,.05-.12.1-.18.03-.08.09-.14.18-.14.08,0,.14.06.18.14.04.06.08.18.08.18Z"/>
        </g>
        <path class="cls-1" d="m94.13,207.57C87.61,170.37,1.38,226.44,0,226.14l18.99,2.27-5.16,16.9s32.03-17.48,52.91-25.36c20.88-7.89,30.92,1.68,30.92,1.68-2.42-1.97-3.53-14.06-3.53-14.06Zm-20.2-11.41c-.54.06-1.33.11-2.35.28-2.02.29-4.89.97-8.22,1.99-3.35,1.04-7.21,2.45-11.31,4.07-4.09,1.58-8.38,3.42-12.66,5.35-4.29,1.89-8.55,3.84-12.5,5.75-3.97,1.86-7.68,3.61-10.83,5.17-3.19,1.51-5.83,2.77-7.66,3.67-.95.44-1.68.75-2.19.99-.48.23-.79.3-.79.3,0,0,.31-.09.78-.34.48-.27,1.2-.63,2.12-1.11,1.82-.94,4.39-2.33,7.52-3.92,3.13-1.62,6.78-3.49,10.75-5.41,3.95-1.92,8.19-3.93,12.48-5.84,4.29-1.89,8.62-3.7,12.74-5.3,4.1-1.58,8.03-2.85,11.4-3.81,3.4-.97,6.3-1.49,8.35-1.73,1.02-.14,1.83-.14,2.37-.15.56,0,.85,0,.85,0,0,0-.3,0-.85.03Z"/>
        <path class="cls-1" d="m154.63,243.63c-1.92-5.1-.29-8.76-3.82-9.03-3.5-.29-39.48-3.84-71.33,4.51-31.83,8.36-30.11,4.53-35.27,4.53-.98,0,7.05,7.59,7.05,10.43s-2.16,7.58,3,7.3c5.13-.28,51.27-12.96,74.99-10.69,17.92,1.69,28.34,5.65,33.79,10.71,0,0-6.53-12.69-8.41-17.74Zm-6.53-7.31c-.36-.13-.83-.19-1.36-.26-.53-.09-1.15-.21-1.87-.25-1.38-.16-3.1-.28-5.06-.37-1.96-.1-4.17-.17-6.59-.26-2.4-.07-5.03-.19-7.78-.18-2.75.09-5.65.21-8.67.38-3.02.15-6.1.46-9.25.73-3.16.3-6.33.71-9.53,1.11-3.18.48-6.37.88-9.49,1.43-1.55.32-3.09.58-4.61.88-1.53.28-3.03.52-4.51.92-2.93.7-5.76,1.37-8.45,2.02-2.68.67-5.23,1.28-7.61,1.82-2.35.5-4.54.9-6.48,1.17-1.94.3-3.65.45-5.07.49-1.42.05-2.53-.07-3.27-.28-.76-.19-1-.58-.96-.58-.04,0,.22.38.99.55.72.17,1.82.24,3.23.13,1.4-.07,3.11-.27,5.02-.59,1.95-.33,4.1-.81,6.44-1.35,2.36-.54,4.88-1.18,7.54-1.92,2.71-.72,5.55-1.41,8.46-2.13,1.47-.41,3-.64,4.51-.97,1.53-.29,3.08-.57,4.63-.89,3.13-.57,6.32-.98,9.5-1.52,3.22-.35,6.42-.75,9.57-1.04,3.17-.25,6.29-.54,9.31-.68,3.01-.2,5.94-.26,8.7-.27,2.8.01,5.4.17,7.81.29,2.41.12,4.63.27,6.57.42,1.97.15,3.66.3,5.05.52.71.05,1.33.2,1.88.29.54.12.98.18,1.35.32.74.22,1.11.33,1.11.33,0,0-.4-.09-1.12-.27Z"/>
        <g>
          <g>
            <path class="cls-1" d="m202.73,255.02s.26.5.56,1.28c.32.77.68,1.78.99,2.85.33,1.06.6,2.12.75,2.95.18.79.23,1.36.23,1.36,0,0-.24-.52-.55-1.27-.3-.76-.68-1.82-1-2.87-.32-1.06-.57-2.12-.72-2.92-.18-.83-.26-1.38-.26-1.38Z"/>
            <path class="cls-1" d="m204.56,256.52s.21.36.46.94c.24.56.53,1.35.76,2.12.24.79.42,1.59.54,2.19.09.61.13,1.06.13,1.06,0,0-.24-.38-.47-.96-.25-.55-.54-1.32-.77-2.1-.24-.79-.43-1.59-.52-2.22-.11-.6-.13-1.03-.13-1.03Z"/>
            <path class="cls-1" d="m201.43,254.32s.26.58.61,1.49c.32.89.74,2.1,1.08,3.32.34,1.24.67,2.48.84,3.43.18.93.26,1.58.26,1.58,0,0-.25-.58-.59-1.49-.35-.9-.73-2.11-1.09-3.33-.33-1.25-.65-2.49-.84-3.43-.17-.95-.26-1.57-.26-1.57Z"/>
            <path class="cls-1" d="m200.25,254.06s.27.65.59,1.59c.35.97.74,2.27,1.09,3.57.34,1.33.64,2.65.85,3.66.18,1,.25,1.69.25,1.69,0,0-.25-.64-.62-1.62-.32-.97-.72-2.25-1.06-3.56-.35-1.33-.65-2.64-.84-3.65-.19-1.02-.27-1.68-.27-1.68Z"/>
            <path class="cls-1" d="m199.37,254.16s.24.65.61,1.68c.3,1,.67,2.38.99,3.73.33,1.37.61,2.75.79,3.79.17,1.05.26,1.74.26,1.74,0,0-.26-.64-.59-1.65-.33-1.03-.71-2.38-1.04-3.72-.33-1.39-.62-2.77-.79-3.8-.16-1.06-.24-1.76-.24-1.76Z"/>
            <path class="cls-1" d="m198.09,254.39s.27.66.6,1.7c.37,1.02.78,2.39,1.13,3.78.34,1.4.67,2.79.85,3.84.2,1.07.28,1.78.28,1.78,0,0-.28-.67-.6-1.69-.36-1.01-.76-2.38-1.12-3.79-.35-1.38-.66-2.78-.87-3.82-.17-1.08-.27-1.8-.27-1.8Z"/>
            <path class="cls-1" d="m196.91,254.71s.28.66.6,1.7c.32,1.04.73,2.42,1.07,3.83.33,1.41.63,2.83.82,3.89.19,1.06.25,1.79.25,1.79,0,0-.27-.68-.59-1.73-.33-1.01-.75-2.42-1.08-3.81-.33-1.4-.62-2.83-.8-3.88-.19-1.09-.28-1.78-.28-1.78Z"/>
            <path class="cls-1" d="m195.68,255.04s.26.69.6,1.75c.31,1.02.7,2.39,1.04,3.83.33,1.39.63,2.82.8,3.9.19,1.06.25,1.81.25,1.81,0,0-.27-.71-.58-1.74-.32-1.04-.7-2.44-1.04-3.85-.33-1.41-.62-2.82-.81-3.9-.17-1.06-.25-1.8-.25-1.8Z"/>
            <path class="cls-1" d="m194.64,255.39s.25.67.56,1.68c.34,1.02.72,2.38,1.08,3.76.31,1.37.59,2.76.77,3.8.17,1.06.25,1.76.25,1.76,0,0-.25-.65-.58-1.69-.32-1-.71-2.38-1.05-3.74-.32-1.38-.61-2.76-.79-3.83-.16-1.04-.24-1.75-.24-1.75Z"/>
            <path class="cls-1" d="m193.5,255.81s.27.68.59,1.71c.32,1.06.71,2.47,1.04,3.87.33,1.44.62,2.85.79,3.93.17,1.08.24,1.82.24,1.82,0,0-.24-.68-.58-1.73-.32-1.05-.7-2.46-1.03-3.86-.32-1.42-.6-2.85-.8-3.92-.16-1.09-.25-1.81-.25-1.81Z"/>
            <path class="cls-1" d="m192.69,256.17s.24.66.52,1.69c.31,1.02.64,2.38.94,3.77.3,1.38.54,2.76.68,3.8.14,1.06.2,1.77.2,1.77,0,0-.22-.68-.51-1.68-.32-1.02-.66-2.41-.94-3.78-.32-1.37-.54-2.76-.7-3.81-.13-1.04-.19-1.76-.19-1.76Z"/>
            <path class="cls-1" d="m191.69,256.52s.23.65.53,1.68c.33.98.66,2.34.96,3.7.32,1.37.57,2.73.72,3.78.14,1,.2,1.71.2,1.71,0,0-.25-.64-.55-1.65-.3-1-.64-2.36-.95-3.72-.29-1.35-.54-2.7-.69-3.77-.15-1.02-.21-1.73-.21-1.73Z"/>
            <path class="cls-1" d="m190.48,257.23s.26.62.53,1.58c.3.95.62,2.25.93,3.55.26,1.29.53,2.6.65,3.59.15.99.21,1.65.21,1.65,0,0-.25-.62-.55-1.59-.28-.95-.61-2.23-.91-3.54-.29-1.3-.52-2.59-.66-3.6-.13-.99-.2-1.64-.2-1.64Z"/>
            <path class="cls-1" d="m189.45,257.59s.22.62.51,1.57c.3.95.65,2.22.95,3.53.27,1.29.51,2.58.65,3.57.13.98.2,1.63.2,1.63,0,0-.24-.6-.52-1.55-.31-.96-.64-2.24-.95-3.51-.28-1.3-.52-2.6-.66-3.59-.14-.98-.19-1.65-.19-1.65Z"/>
            <path class="cls-1" d="m188.57,258.3s.23.59.5,1.51c.25.89.54,2.12.8,3.34.22,1.21.44,2.47.53,3.4.1.93.14,1.56.14,1.56,0,0-.23-.58-.47-1.5-.26-.9-.56-2.11-.79-3.32-.27-1.26-.44-2.49-.55-3.42-.13-.94-.16-1.57-.16-1.57Z"/>
            <path class="cls-1" d="m187.63,258.91s.21.58.44,1.43c.25.84.52,1.99.74,3.16.21,1.15.39,2.33.49,3.21.07.9.11,1.49.11,1.49,0,0-.21-.55-.45-1.41-.24-.83-.51-2.01-.74-3.17-.23-1.14-.39-2.34-.48-3.19-.1-.91-.11-1.51-.11-1.51Z"/>
            <path class="cls-1" d="m186.63,259.42s.21.55.46,1.36c.23.81.51,1.9.75,3.01.23,1.1.41,2.21.48,3.07.11.81.11,1.4.11,1.4,0,0-.19-.53-.46-1.34-.23-.82-.5-1.92-.75-3-.22-1.11-.39-2.22-.49-3.07-.09-.84-.1-1.43-.1-1.43Z"/>
            <path class="cls-1" d="m185.73,260.16s.19.48.42,1.22c.23.76.48,1.76.69,2.76.21,1.02.35,2.05.42,2.81.06.8.06,1.31.06,1.31,0,0-.17-.5-.4-1.24-.23-.74-.48-1.75-.67-2.74-.21-1.01-.36-2.05-.44-2.82-.07-.78-.08-1.3-.08-1.3Z"/>
            <path class="cls-1" d="m184.77,260.9s.2.44.41,1.11c.2.68.44,1.59.61,2.52.17.92.31,1.85.36,2.54.07.71.05,1.19.05,1.19,0,0-.17-.43-.39-1.09-.23-.71-.43-1.61-.61-2.53-.18-.93-.3-1.85-.37-2.56-.06-.7-.06-1.17-.06-1.17Z"/>
            <path class="cls-1" d="m183.87,261.69s.17.37.37.97c.2.61.41,1.42.58,2.23.16.82.3,1.66.33,2.28.04.61.04,1.03.04,1.03,0,0-.18-.37-.38-.97-.2-.61-.41-1.41-.58-2.23-.16-.82-.29-1.64-.32-2.25-.05-.65-.04-1.06-.04-1.06Z"/>
            <path class="cls-1" d="m183.06,262.48s.17.35.36.83c.17.49.38,1.19.5,1.86.13.7.22,1.4.24,1.92.03.53,0,.9,0,.9,0,0-.17-.33-.33-.83-.2-.5-.37-1.17-.51-1.86-.13-.7-.23-1.39-.26-1.92-.01-.52,0-.91,0-.91Z"/>
            <path class="cls-1" d="m182.25,263.73s.15.21.26.57c.14.34.27.81.37,1.28.06.47.1.96.1,1.34-.04.37-.08.62-.08.62,0,0-.15-.24-.28-.59-.14-.33-.26-.8-.33-1.27-.1-.48-.13-.96-.1-1.33.01-.37.06-.62.06-.62Z"/>
          </g>
          <g>
            <path class="cls-1" d="m299.97,239.57s.01.24-.02.58c-.03.35-.13.79-.28,1.21-.14.41-.33.81-.51,1.13-.19.28-.35.45-.35.45,0,0,0-.23.02-.57.02-.36.12-.79.28-1.22.15-.4.33-.82.5-1.11.18-.29.35-.47.35-.47Z"/>
            <path class="cls-1" d="m298.76,237.35s-.04.41-.14,1.01c-.14.6-.34,1.34-.59,2.1-.26.75-.57,1.49-.82,2.03-.28.52-.49.86-.49.86,0,0,.04-.41.16-1,.11-.58.33-1.34.58-2.1.26-.75.54-1.49.81-2,.29-.54.5-.9.5-.9Z"/>
            <path class="cls-1" d="m297.66,236.04s-.1.46-.33,1.17c-.22.7-.55,1.61-.93,2.49-.39.9-.8,1.75-1.17,2.4-.36.63-.65,1.04-.65,1.04,0,0,.11-.47.32-1.17.21-.68.55-1.6.95-2.49.38-.9.82-1.77,1.16-2.4.36-.65.64-1.04.64-1.04Z"/>
            <path class="cls-1" d="m296.45,233.81s-.16.63-.47,1.59c-.28.95-.73,2.19-1.22,3.41-.5,1.2-1.03,2.41-1.5,3.28-.44.9-.77,1.45-.77,1.45,0,0,.16-.63.46-1.6.3-.92.75-2.17,1.22-3.38.5-1.21,1.06-2.41,1.49-3.29.45-.88.79-1.46.79-1.46Z"/>
            <path class="cls-1" d="m295.29,232.68s-.21.71-.61,1.77c-.39,1.06-.95,2.41-1.58,3.8-.63,1.35-1.29,2.69-1.82,3.68-.55.99-.94,1.62-.94,1.62,0,0,.21-.71.63-1.78.38-1.04.97-2.43,1.57-3.79.63-1.35,1.29-2.7,1.84-3.69.52-.98.92-1.62.92-1.62Z"/>
            <path class="cls-1" d="m293.78,231.45s-.23.79-.66,1.91c-.21.57-.44,1.23-.73,1.92-.3.69-.61,1.43-.93,2.18-.34.73-.67,1.49-.99,2.16-.3.67-.66,1.29-.93,1.82-.56,1.09-.98,1.78-.98,1.78,0,0,.24-.76.65-1.89.24-.56.46-1.23.76-1.94.3-.7.6-1.44.93-2.18.33-.73.66-1.44,1-2.14.32-.68.66-1.3.91-1.86.55-1.07.97-1.76.97-1.76Z"/>
            <path class="cls-1" d="m292.81,230.13s-.3.85-.84,2.08c-.26.6-.58,1.33-.94,2.09-.35.77-.73,1.55-1.12,2.38-.41.78-.8,1.58-1.2,2.32-.41.75-.79,1.44-1.12,2.02-.66,1.18-1.14,1.91-1.14,1.91,0,0,.32-.83.84-2.07.28-.61.58-1.33.93-2.1.33-.74.75-1.57,1.13-2.35.4-.8.82-1.6,1.21-2.34.4-.76.79-1.43,1.11-2.01.65-1.18,1.13-1.93,1.13-1.93Z"/>
            <path class="cls-1" d="m291.27,228.74s-.33.93-.88,2.24c-.27.68-.59,1.46-.96,2.28-.37.83-.77,1.69-1.18,2.58-.4.86-.84,1.73-1.23,2.54-.39.8-.81,1.53-1.15,2.18-.66,1.27-1.18,2.11-1.18,2.11,0,0,.34-.92.9-2.27.27-.66.58-1.44.95-2.26.36-.82.76-1.71,1.17-2.55.42-.88.82-1.73,1.23-2.54.42-.8.82-1.53,1.16-2.18.69-1.27,1.17-2.12,1.17-2.12Z"/>
            <path class="cls-1" d="m289.65,227.79s-.36.95-.91,2.32c-.29.68-.6,1.48-1,2.34-.36.85-.77,1.75-1.19,2.65-.41.88-.83,1.8-1.26,2.61-.41.82-.83,1.61-1.15,2.25-.69,1.33-1.19,2.19-1.19,2.19,0,0,.3-.95.88-2.33.3-.7.61-1.49.99-2.35.37-.83.79-1.75,1.19-2.62.44-.91.86-1.81,1.27-2.63.41-.84.82-1.6,1.15-2.25.71-1.33,1.22-2.19,1.22-2.19Z"/>
            <path class="cls-1" d="m287.93,226.66s-.35,1-.95,2.46c-.32.7-.67,1.58-1.09,2.47-.4.92-.86,1.9-1.3,2.83-.45.97-.92,1.91-1.35,2.81-.46.88-.9,1.71-1.27,2.38-.75,1.42-1.29,2.32-1.29,2.32,0,0,.37-.98,1-2.45.3-.74.65-1.58,1.04-2.49.42-.9.88-1.86,1.31-2.84.46-.95.92-1.89,1.37-2.78.46-.88.88-1.7,1.25-2.42.74-1.39,1.26-2.3,1.26-2.3Z"/>
            <path class="cls-1" d="m286.46,225.82s-.35.99-.98,2.5c-.32.71-.67,1.59-1.07,2.5-.4.91-.86,1.88-1.3,2.86-.45.97-.93,1.91-1.37,2.81-.46.9-.89,1.71-1.24,2.43-.75,1.41-1.28,2.35-1.28,2.35,0,0,.35-1.03.96-2.51.32-.73.67-1.59,1.08-2.49.39-.92.85-1.89,1.3-2.86.46-.96.92-1.92,1.37-2.82.44-.88.89-1.7,1.25-2.43.73-1.42,1.28-2.33,1.28-2.33Z"/>
            <path class="cls-1" d="m284.9,224.76s-.39,1.06-1.04,2.59c-.33.78-.72,1.7-1.17,2.64-.41.96-.91,1.97-1.37,3-.51,1.02-.97,2-1.47,2.94-.46.96-.95,1.81-1.34,2.55-.78,1.48-1.36,2.47-1.36,2.47,0,0,.39-1.06,1.06-2.6.35-.77.71-1.69,1.15-2.65.42-.97.91-1.96,1.4-2.98.48-1,.95-2.02,1.43-2.96.49-.95.96-1.79,1.35-2.55.79-1.49,1.35-2.45,1.35-2.45Z"/>
            <path class="cls-1" d="m283.63,223.65s-.41,1.09-1.1,2.7c-.37.79-.75,1.72-1.21,2.7-.46.99-.96,2.05-1.46,3.09-.51,1.04-1.04,2.09-1.54,3.05-.48.96-.97,1.86-1.37,2.63-.86,1.54-1.44,2.51-1.44,2.51,0,0,.44-1.08,1.12-2.66.35-.82.75-1.73,1.21-2.72.46-.99.97-2.03,1.47-3.09.51-1.03,1.03-2.07,1.51-3.05.51-.97.99-1.86,1.39-2.63.83-1.53,1.43-2.54,1.43-2.54Z"/>
            <path class="cls-1" d="m282.18,222.91s-.4,1.12-1.12,2.75c-.35.84-.76,1.79-1.22,2.8-.45,1.02-.96,2.09-1.48,3.18-.53,1.04-1.02,2.14-1.53,3.11-.51,1.03-1,1.92-1.4,2.72-.85,1.58-1.46,2.58-1.46,2.58,0,0,.44-1.09,1.15-2.74.35-.81.76-1.76,1.22-2.79.47-1.02.97-2.08,1.48-3.17.52-1.04,1.04-2.14,1.53-3.11.51-1.01,1.01-1.93,1.42-2.71.81-1.58,1.42-2.62,1.42-2.62Z"/>
            <path class="cls-1" d="m280.08,221.94s-.39,1.13-1.05,2.82c-.33.84-.71,1.82-1.15,2.87-.42,1.02-.9,2.15-1.37,3.25-.48,1.11-.99,2.2-1.43,3.21-.48,1.05-.94,1.98-1.33,2.8-.81,1.63-1.37,2.69-1.37,2.69,0,0,.39-1.13,1.04-2.83.35-.83.72-1.83,1.15-2.87.43-1.03.9-2.13,1.37-3.25.5-1.09.96-2.2,1.45-3.23.48-1.01.93-1.96,1.32-2.76.8-1.64,1.36-2.7,1.36-2.7Z"/>
            <path class="cls-1" d="m252.22,219.38s-.09.5-.31,1.22c-.21.72-.52,1.64-.94,2.56-.35.93-.77,1.8-1.11,2.47-.35.66-.63,1.08-.63,1.08,0,0,.1-.5.32-1.22.2-.72.53-1.64.91-2.57.37-.91.79-1.8,1.13-2.47.37-.67.63-1.08.63-1.08Z"/>
            <path class="cls-1" d="m249.79,220.33s-.04.38-.18.9c-.13.54-.35,1.2-.61,1.85-.26.65-.58,1.29-.86,1.73-.28.48-.49.77-.49.77,0,0,.04-.37.17-.88.14-.55.36-1.22.61-1.87.26-.65.58-1.27.85-1.73.29-.48.5-.78.5-.78Z"/>
            <path class="cls-1" d="m254.21,218.7s-.16.64-.45,1.55c-.31.93-.76,2.13-1.25,3.31-.49,1.19-1.02,2.37-1.48,3.21-.45.89-.8,1.43-.8,1.43,0,0,.17-.62.47-1.55.28-.93.75-2.14,1.26-3.32.48-1.17,1.02-2.35,1.46-3.21.46-.85.79-1.42.79-1.42Z"/>
            <path class="cls-1" d="m255.98,218.13s-.17.73-.49,1.82c-.33,1.1-.79,2.53-1.3,3.95-.55,1.44-1.15,2.86-1.59,3.88-.47,1.04-.83,1.74-.83,1.74,0,0,.19-.78.49-1.87.33-1.09.8-2.52,1.33-3.96.54-1.42,1.1-2.81,1.57-3.86.47-1.04.82-1.7.82-1.7Z"/>
            <path class="cls-1" d="m258.27,217.84s-.23.84-.66,2.08c-.23.61-.47,1.35-.78,2.1-.26.78-.6,1.58-.91,2.41-.33.8-.65,1.6-1.01,2.35-.33.75-.66,1.46-.94,2.05-.56,1.18-.97,1.93-.97,1.93,0,0,.23-.84.66-2.07.23-.62.48-1.34.77-2.12.27-.77.6-1.58.92-2.39.35-.81.69-1.61,1.02-2.37.33-.74.67-1.42.94-2.02.55-1.16.97-1.94.97-1.94Z"/>
            <path class="cls-1" d="m259.73,217.67s-.24.95-.66,2.29c-.24.7-.48,1.51-.75,2.36-.3.84-.6,1.74-.93,2.63-.32.91-.66,1.79-1.01,2.63-.31.82-.66,1.57-.93,2.25-.55,1.31-.97,2.2-.97,2.2,0,0,.23-.94.63-2.33.23-.67.48-1.47.78-2.33.28-.86.61-1.73.93-2.63.33-.91.66-1.8.99-2.63.32-.84.66-1.58.95-2.25.56-1.33.97-2.19.97-2.19Z"/>
            <path class="cls-1" d="m261.81,217.61s-.28,1.02-.77,2.51c-.24.76-.5,1.64-.83,2.56-.32.91-.67,1.9-1.04,2.89-.36.97-.73,1.94-1.08,2.85-.35.91-.73,1.77-1.02,2.48-.61,1.44-1.09,2.4-1.09,2.4,0,0,.29-1,.75-2.52.26-.74.53-1.62.84-2.52.32-.92.68-1.91,1.02-2.89.39-.99.77-1.96,1.12-2.88.35-.91.73-1.73,1.02-2.48.62-1.44,1.08-2.39,1.08-2.39Z"/>
            <path class="cls-1" d="m263.36,217.61s-.27,1.09-.73,2.65c-.27.79-.54,1.71-.84,2.69-.33.97-.68,2.01-1.04,3.05-.37,1.04-.74,2.05-1.11,3.02-.36.97-.73,1.85-1.01,2.63-.61,1.52-1.07,2.5-1.07,2.5,0,0,.27-1.06.75-2.63.23-.78.5-1.7.86-2.68.28-.97.63-2.01,1.02-3.05.35-1.04.71-2.06,1.08-3.03.35-.97.73-1.86,1.04-2.61.6-1.52,1.05-2.54,1.05-2.54Z"/>
            <path class="cls-1" d="m265.43,217.84s-.31,1.11-.84,2.73c-.27.82-.57,1.78-.92,2.76-.34,1.04-.72,2.1-1.09,3.16-.41,1.09-.81,2.13-1.19,3.14-.38,1-.78,1.9-1.11,2.71-.65,1.61-1.1,2.64-1.1,2.64,0,0,.28-1.13.8-2.74.26-.83.56-1.78.91-2.78.33-1.02.71-2.09,1.12-3.16.39-1.08.78-2.14,1.18-3.14.39-.99.77-1.92,1.09-2.71.65-1.59,1.15-2.61,1.15-2.61Z"/>
            <path class="cls-1" d="m267.4,217.84s-.33,1.13-.9,2.83c-.3.84-.62,1.83-.99,2.88-.4,1.05-.82,2.16-1.24,3.26-.42,1.12-.84,2.22-1.27,3.25-.41,1.06-.85,2-1.19,2.82-.69,1.63-1.21,2.7-1.21,2.7,0,0,.33-1.14.9-2.84.3-.84.62-1.82,1.01-2.87.37-1.06.8-2.16,1.22-3.28.41-1.09.86-2.2,1.27-3.23.42-1.03.83-1.99,1.18-2.82.7-1.64,1.21-2.7,1.21-2.7Z"/>
            <path class="cls-1" d="m269.34,218.37s-.33,1.16-.93,2.87c-.29.84-.63,1.83-1.02,2.9-.4,1.05-.83,2.16-1.26,3.26-.46,1.13-.88,2.24-1.31,3.28-.43,1.04-.87,1.99-1.22,2.82-.72,1.64-1.23,2.72-1.23,2.72,0,0,.34-1.15.92-2.84.3-.85.65-1.85,1.04-2.9.38-1.06.83-2.17,1.24-3.3.45-1.1.88-2.22,1.32-3.25.44-1.04.87-1.99,1.21-2.81.72-1.65,1.25-2.75,1.25-2.75Z"/>
            <path class="cls-1" d="m270.95,218.98s-.35,1.14-.92,2.86c-.29.84-.61,1.82-.99,2.88-.38,1.05-.8,2.16-1.2,3.27-.46,1.12-.87,2.23-1.3,3.25-.41,1.04-.83,2-1.18,2.84-.71,1.62-1.22,2.71-1.22,2.71,0,0,.35-1.15.9-2.84.29-.86.63-1.85,1.01-2.88.37-1.06.77-2.19,1.21-3.3.41-1.08.88-2.21,1.29-3.26.41-1.03.81-1.99,1.16-2.81.72-1.64,1.23-2.72,1.23-2.72Z"/>
            <path class="cls-1" d="m272.73,219.49s-.33,1.13-.93,2.86c-.29.84-.62,1.83-1.01,2.9-.36,1.02-.81,2.16-1.23,3.27-.45,1.11-.89,2.24-1.31,3.28-.41,1.03-.86,1.98-1.21,2.83-.72,1.64-1.23,2.72-1.23,2.72,0,0,.32-1.15.91-2.86.3-.85.63-1.84,1.02-2.9.39-1.05.81-2.17,1.24-3.28.44-1.13.89-2.25,1.31-3.27.41-1.04.85-2.01,1.2-2.84.69-1.64,1.23-2.72,1.23-2.72Z"/>
            <path class="cls-1" d="m274.38,219.73s-.33,1.18-.93,2.91c-.31.87-.64,1.87-1.02,2.96-.39,1.09-.81,2.22-1.24,3.36-.44,1.14-.86,2.26-1.3,3.33-.42,1.08-.84,2.04-1.22,2.9-.69,1.67-1.23,2.79-1.23,2.79,0,0,.35-1.19.93-2.93.3-.86.63-1.87,1.03-2.96.36-1.06.79-2.22,1.21-3.35.45-1.12.9-2.27,1.33-3.34.41-1.03.85-2.03,1.19-2.88.71-1.67,1.24-2.79,1.24-2.79Z"/>
            <path class="cls-1" d="m275.88,220.38s-.36,1.16-.93,2.85c-.3.84-.62,1.84-1.01,2.86-.37,1.05-.8,2.17-1.22,3.3-.45,1.08-.88,2.21-1.31,3.22-.39,1.04-.84,1.99-1.21,2.81-.69,1.65-1.22,2.73-1.22,2.73,0,0,.37-1.14.93-2.85.29-.85.62-1.83,1.02-2.86.38-1.06.79-2.18,1.22-3.3.44-1.09.86-2.2,1.28-3.24.44-1.04.86-1.99,1.21-2.81.7-1.65,1.24-2.71,1.24-2.71Z"/>
            <path class="cls-1" d="m277.99,221.37s-.39,1.13-1.04,2.81c-.35.87-.71,1.85-1.13,2.9-.41,1.03-.89,2.13-1.36,3.25-.48,1.12-.95,2.21-1.42,3.23-.45,1.03-.93,1.98-1.32,2.79-.76,1.64-1.34,2.69-1.34,2.69,0,0,.4-1.13,1.03-2.82.33-.85.7-1.82,1.13-2.86.41-1.06.88-2.17,1.36-3.27.48-1.1.97-2.2,1.43-3.24.46-1.02.92-1.96,1.3-2.77.8-1.64,1.36-2.71,1.36-2.71Z"/>
          </g>
        </g>
        <path class="cls-1" d="m345.17,226.14c-1.37.3-87.63-55.77-94.15-18.57,0,0-1.08,12.09-3.53,14.06,0,0,10.05-9.56,30.93-1.68,20.89,7.88,52.89,25.36,52.89,25.36l-5.15-16.9,19.01-2.27Zm-39.4-18.3c-4.29-1.93-8.57-3.77-12.69-5.35-4.08-1.62-7.92-3.03-11.28-4.07-3.35-1.03-6.19-1.71-8.22-1.99-1-.17-1.81-.22-2.37-.28-.56-.03-.85-.03-.85-.03,0,0,.29,0,.85,0,.55,0,1.36,0,2.39.15,2.02.23,4.95.76,8.32,1.73,3.39.97,7.32,2.24,11.42,3.81,4.11,1.6,8.43,3.41,12.75,5.3,4.28,1.91,8.5,3.92,12.48,5.84,3.96,1.92,7.59,3.79,10.73,5.41,3.14,1.6,5.71,2.99,7.53,3.92.91.48,1.62.84,2.11,1.11.5.25.78.34.78.31,0,0-.3-.05-.79-.27-.5-.24-1.24-.55-2.16-.99-1.87-.9-4.51-2.16-7.68-3.67-3.15-1.57-6.88-3.31-10.84-5.17-3.95-1.91-8.2-3.86-12.49-5.75Z"/>
        <path class="cls-1" d="m300.94,243.63c-5.15,0-3.43,3.83-35.26-4.53-31.82-8.35-67.81-4.8-71.34-4.51-3.52.28-1.89,3.93-3.8,9.03-1.91,5.06-8.42,17.74-8.42,17.74,5.44-5.06,15.86-9.02,33.78-10.71,23.73-2.27,69.83,10.41,75,10.69,5.16.28,2.98-4.49,2.98-7.3s8.04-10.43,7.06-10.43Zm-7.54,2.33c-1.42-.04-3.12-.19-5.06-.49-1.93-.27-4.13-.67-6.51-1.17-2.34-.53-4.92-1.14-7.58-1.82-2.67-.65-5.53-1.32-8.46-2.02-1.47-.4-2.98-.64-4.51-.92-1.54-.3-3.05-.57-4.6-.88-3.12-.55-6.32-.95-9.49-1.43-3.19-.41-6.39-.82-9.54-1.11-3.16-.27-6.23-.58-9.25-.73-3-.18-5.91-.3-8.66-.38-2.77-.01-5.38.11-7.81.18-2.4.08-4.59.16-6.57.26-1.96.1-3.66.22-5.05.37-.71.04-1.34.16-1.86.25-.55.06-1,.13-1.36.26-.74.18-1.13.27-1.13.27,0,0,.39-.11,1.13-.33.35-.14.8-.2,1.34-.32.54-.09,1.14-.24,1.87-.29,1.38-.22,3.09-.37,5.04-.52,1.96-.16,4.19-.31,6.6-.42,2.41-.12,5.03-.28,7.82-.29,2.76.01,5.69.07,8.7.27,3.02.14,6.12.42,9.3.68,3.15.29,6.35.69,9.56,1.04,3.19.53,6.39.95,9.5,1.52,1.57.32,3.12.6,4.63.89,1.55.33,3.06.57,4.51.97,2.94.72,5.78,1.41,8.47,2.13,2.66.74,5.17,1.38,7.53,1.92,2.33.54,4.51,1.02,6.43,1.35,1.93.32,3.65.52,5.04.59,1.41.11,2.52.04,3.25-.13.76-.18,1.01-.55.97-.55.04,0-.21.39-.97.58-.71.21-1.84.33-3.25.28Z"/>
        <path class="cls-1" d="m172.63,270.62s-20.35.64-34.09-7.28c0,0,5.51,9.94,6.12,16.18.6,6.23,0,6.23,3.13,6.96,3.16.74,15.68,1.89,24.83,1.89s21.68-1.15,24.83-1.89c3.14-.73,2.52-.73,3.14-6.96.6-6.24,6.12-16.18,6.12-16.18-13.74,7.93-34.1,7.28-34.1,7.28Zm26.11-2.61c-1.11.45-2.45.81-3.87,1.24-.72.2-1.47.4-2.24.64-.78.21-1.58.46-2.43.62-1.68.33-3.45.72-5.26,1.1-1.85.26-3.77.5-5.73.75-1.96.14-3.93.28-5.95.38-.99-.02-2.01-.04-3-.04-.99-.03-2-.03-2.97-.11-1.95-.18-3.89-.29-5.74-.59-.93-.15-1.83-.22-2.73-.41-.87-.2-1.73-.39-2.56-.55-.85-.16-1.64-.41-2.44-.6-.78-.23-1.54-.39-2.24-.65-.71-.23-1.39-.46-2.05-.67-.63-.2-1.24-.46-1.79-.69-1.15-.41-2.11-.87-2.89-1.22-1.58-.74-2.42-1.27-2.42-1.27,0,0,.2.13.63.33.43.21,1.04.44,1.84.82.82.3,1.79.71,2.95,1.08,1.13.41,2.44.8,3.87,1.19.72.23,1.48.39,2.23.56.8.19,1.6.43,2.44.54.84.15,1.69.3,2.57.46.88.17,1.79.25,2.72.38,1.81.29,3.73.39,5.69.53.97.09,1.96.09,2.93.09h2.96c1.97-.08,3.95-.17,5.91-.29,1.94-.24,3.83-.48,5.67-.7,1.82-.33,3.6-.67,5.26-.98.85-.13,1.65-.36,2.41-.56.77-.19,1.53-.38,2.25-.59,1.44-.36,2.76-.67,3.9-1.08,1.17-.36,2.16-.7,2.98-.95,1.67-.54,2.62-.84,2.62-.84,0,0-.93.37-2.54.99-.83.3-1.8.66-2.96,1.11Z"/>
        <g>
          <g>
            <path class="cls-1" d="m198.24,279.86l-.89,1.62c9.7,5.24,17.95,4.53,23.16,3.06,5.65-1.64,8.96-4.49,9.09-4.6,8.27-6.62,16.07-9.5,23.07-8.59,7.68,1,11.73,6.38,11.78,6.44,1.54,1.96,2.21,4.38,1.92,6.84-.3,2.44-1.55,4.63-3.48,6.14-1.58,1.22-3.52,1.75-5.48,1.48-1.97-.3-3.71-1.35-4.86-2.99-.69-.98-1-2.25-.86-3.52.29-2.29,1.35-3.94,3.07-4.61,1.43-.59,3.08-.34,4.28.62,1.16.92,1.58,2.62,1.04,3.99-.39.98-1.12,1.6-2.05,1.73-.84.14-1.7-.19-2.21-.9l-1.48,1.15c.95,1.2,2.46,1.81,3.96,1.6,1.59-.22,2.88-1.26,3.52-2.89.85-2.17.2-4.68-1.6-6.13-1.74-1.41-4.09-1.75-6.16-.9-2.31.92-3.86,3.16-4.21,6.12-.23,1.74.21,3.45,1.17,4.82,1.46,2.05,3.63,3.38,6.11,3.74,2.47.38,4.94-.28,6.89-1.83,4.82-3.77,5.69-10.77,1.9-15.6-.16-.22-4.51-6.03-13-7.15-7.55-.98-15.8,2.03-24.5,9.01-.56.47-12.72,10.72-30.18,1.35Z"/>
            <path class="cls-1" d="m261.39,272.56l-.65,1.75c.27.1,6.45,2.33,9.37-.41,1.61-1.51,1.88-4.09.83-7.67l-1.78.53c.56,1.97.99,4.54-.32,5.76-1.73,1.66-5.96.58-7.45.05Z"/>
            <path class="cls-1" d="m256.83,284.46c-1.05-.56-2.33-.14-2.86.91-.52,1.07-.1,2.33.93,2.86,1.04.54,2.33.13,2.86-.93.53-1.05.12-2.31-.93-2.84Z"/>
            <path class="cls-1" d="m231.42,259.58c-1.06-.55-2.33-.13-2.87.92-.54,1.05-.11,2.34.93,2.86,1.06.54,2.33.12,2.89-.94.52-1.04.09-2.32-.95-2.84Z"/>
            <path class="cls-1" d="m269.15,265.24c-1.15-.05-2.16.87-2.18,2.05-.05,1.17.87,2.16,2.03,2.2,1.18.06,2.16-.86,2.21-2.03.04-1.17-.87-2.18-2.06-2.22Z"/>
            <path class="cls-1" d="m201.56,281.22l-.04,1.88c10.04.1,14.07-12.49,14.24-13.03,2.8-7.86,6.44-12.62,10.45-13.75,3.51-1.01,6.18,1.07,6.32,1.15,1.3.88,2.14,2.12,2.45,3.58.29,1.44.02,2.94-.79,4.16-1.29,1.97-3.95,2.5-5.92,1.24-.7-.47-1.18-1.2-1.37-2.04-.19-.84-.01-1.7.45-2.43.72-1.09,2.2-1.39,3.3-.68l1.04-1.57c-1.98-1.27-4.61-.72-5.89,1.24-.77,1.13-1.02,2.49-.74,3.82.28,1.33,1.06,2.47,2.2,3.21,2.82,1.87,6.62,1.06,8.48-1.76,1.07-1.65,1.47-3.64,1.05-5.58-.39-1.92-1.53-3.59-3.19-4.68-.07-.07-3.43-2.72-7.87-1.49-4.71,1.34-8.64,6.38-11.76,14.99-.05.18-3.8,11.86-12.42,11.76Z"/>
            <path class="cls-1" d="m246.61,275.03c.54.97.94,1.99,1.22,3.04.27,1.02.43,2.12.26,3.1-.08.48-.26.95-.5,1.36-.12.19-.25.39-.42.55-.17.19-.33.33-.53.48-.37.29-.78.56-1.24.76-.46.19-.95.34-1.45.45h.1c-1.11.13-2.18,0-2.96-.5-.79-.51-1.38-1.44-1.88-2.47-.51-1.04-.96-2.2-1.47-3.34-.51-1.14-1.14-2.29-1.87-3.35-.74-1.09-1.61-2.1-2.57-2.98-.96-.88-2.07-1.63-3.23-2.24-2.29-1.23-4.77-1.99-7.26-2.43l-1.83-.28c-.64-.07-1.28-.17-1.9-.22-1.26-.07-2.53-.14-3.81-.07-1.26.06-2.51.21-3.79.46-1.23.25-2.44.58-3.62,1.08-2.36.99-4.51,2.47-6.18,4.39-1.63,1.92-2.84,4.2-3.25,6.63.35-1.17.93-2.26,1.6-3.27.65-1.02,1.44-1.92,2.29-2.77,1.72-1.62,3.82-2.85,6.04-3.6,2.23-.74,4.61-1.07,6.97-1.02,1.16-.03,2.35.06,3.55.17.6.07,1.17.19,1.75.25l1.77.34c2.32.49,4.6,1.19,6.63,2.31,1.99,1.11,3.74,2.61,5.06,4.5,1.34,1.89,2.17,4.07,3.35,6.37.6,1.13,1.35,2.36,2.7,3.17,1.34.75,2.87.75,4.15.54l.09-.04h.04c.56-.2,1.11-.42,1.66-.69.53-.3,1.04-.67,1.49-1.09.22-.23.44-.46.63-.72.17-.27.33-.53.46-.85.28-.56.42-1.18.44-1.79.04-1.21-.26-2.36-.73-3.39-.44-1.03-1.06-1.99-1.77-2.84Z"/>
          </g>
          <g>
            <path class="cls-1" d="m146.93,279.86l.87,1.62c-9.72,5.24-17.94,4.53-23.13,3.06-5.66-1.64-8.97-4.49-9.1-4.6-8.26-6.62-16.06-9.5-23.07-8.59-7.71,1-11.73,6.38-11.78,6.44-1.54,1.96-2.21,4.38-1.92,6.84.3,2.44,1.53,4.63,3.49,6.14,1.55,1.22,3.51,1.75,5.48,1.48,1.98-.3,3.71-1.35,4.86-2.99.7-.98,1-2.25.85-3.52-.29-2.29-1.37-3.94-3.05-4.61-1.44-.59-3.08-.34-4.29.62-1.15.92-1.59,2.62-1.03,3.99.39.98,1.13,1.6,2.02,1.73.87.14,1.72-.19,2.24-.9l1.47,1.15c-.96,1.2-2.46,1.81-3.97,1.6-1.6-.22-2.86-1.26-3.5-2.89-.87-2.17-.21-4.68,1.59-6.13,1.72-1.41,4.1-1.75,6.17-.9,2.3.92,3.83,3.16,4.19,6.12.22,1.74-.21,3.45-1.18,4.82-1.44,2.05-3.61,3.38-6.1,3.74-2.47.38-4.92-.28-6.9-1.83-4.83-3.77-5.67-10.77-1.89-15.6.17-.22,4.52-6.03,13.01-7.15,7.54-.98,15.79,2.03,24.5,9.01.55.47,12.72,10.72,30.18,1.35Z"/>
            <path class="cls-1" d="m83.77,272.56l.66,1.75c-.27.1-6.45,2.33-9.37-.41-1.62-1.51-1.88-4.09-.83-7.67l1.79.53c-.59,1.97-1,4.54.31,5.76,1.74,1.66,5.95.58,7.44.05Z"/>
            <path class="cls-1" d="m88.33,284.46c1.04-.56,2.33-.14,2.87.91.53,1.07.12,2.33-.94,2.86-1.04.54-2.32.13-2.85-.93-.54-1.05-.13-2.31.92-2.84Z"/>
            <path class="cls-1" d="m113.74,259.58c1.04-.55,2.33-.13,2.87.92.53,1.05.11,2.34-.95,2.86-1.04.54-2.32.12-2.85-.94-.54-1.04-.12-2.32.92-2.84Z"/>
            <path class="cls-1" d="m76,265.24c1.14-.05,2.13.87,2.18,2.05.05,1.17-.85,2.16-2.03,2.2-1.16.06-2.17-.86-2.23-2.03-.03-1.17.88-2.18,2.07-2.22Z"/>
            <path class="cls-1" d="m143.61,281.22v1.88c-10.03.1-14.03-12.49-14.22-13.03-2.81-7.86-6.42-12.62-10.44-13.75-3.52-1.01-6.2,1.07-6.31,1.15-1.3.88-2.15,2.12-2.46,3.58-.3,1.44-.03,2.94.79,4.16,1.27,1.97,3.92,2.5,5.89,1.24.71-.47,1.2-1.2,1.37-2.04.18-.84,0-1.7-.45-2.43-.71-1.09-2.21-1.39-3.31-.68l-1.02-1.57c1.97-1.27,4.61-.72,5.89,1.24.76,1.13,1.01,2.49.73,3.82-.28,1.33-1.06,2.47-2.19,3.21-2.82,1.87-6.63,1.06-8.48-1.76-1.09-1.65-1.45-3.64-1.05-5.58.39-1.92,1.54-3.59,3.2-4.68.06-.07,3.42-2.72,7.88-1.49,4.7,1.34,8.66,6.38,11.74,14.99.04.18,3.79,11.86,12.44,11.76Z"/>
            <path class="cls-1" d="m98.54,275.03c-.53.97-.94,1.99-1.23,3.04-.26,1.02-.43,2.12-.25,3.1.08.48.25.95.51,1.36.12.19.24.39.41.55.15.19.32.33.51.48.38.29.79.56,1.26.76.45.19.94.34,1.43.45h-.1c1.12.13,2.19,0,2.96-.5.78-.51,1.37-1.44,1.87-2.47.51-1.04.96-2.2,1.47-3.34.54-1.14,1.15-2.29,1.88-3.35.72-1.09,1.58-2.1,2.57-2.98.99-.88,2.08-1.63,3.23-2.24,2.31-1.23,4.79-1.99,7.25-2.43l1.85-.28c.61-.07,1.26-.17,1.89-.22,1.26-.07,2.52-.14,3.78-.07,1.28.06,2.55.21,3.79.46,1.27.25,2.49.58,3.66,1.08,2.35.99,4.51,2.47,6.16,4.39,1.64,1.92,2.86,4.2,3.26,6.63-.34-1.17-.94-2.26-1.57-3.27-.69-1.02-1.44-1.92-2.31-2.77-1.73-1.62-3.82-2.85-6.05-3.6-2.24-.74-4.59-1.07-6.98-1.02-1.16-.03-2.35.06-3.53.17-.59.07-1.18.19-1.76.25l-1.78.34c-2.32.49-4.59,1.19-6.6,2.31-2,1.11-3.77,2.61-5.06,4.5-1.33,1.89-2.19,4.07-3.35,6.37-.59,1.13-1.37,2.36-2.71,3.17-1.35.75-2.88.75-4.16.54l-.08-.04h-.03c-.57-.2-1.11-.42-1.66-.69-.54-.3-1.05-.67-1.49-1.09-.22-.23-.43-.46-.62-.72-.2-.27-.34-.53-.48-.85-.27-.56-.42-1.18-.43-1.79-.03-1.21.27-2.36.72-3.39.47-1.03,1.07-1.99,1.78-2.84Z"/>
          </g>
        </g>
      </g>
      <g>
        <path class="cls-1" d="m132.75,172.08c-1-.43-1.18-.75-1.18-2.13,0-3.44.25-7.19.31-8.2.06-.94.25-1.63.75-1.63.56,0,.63.56.63,1.07,0,.82.25,2.13.56,3.19,1.38,4.63,5.07,6.33,8.95,6.33,5.64,0,8.39-3.83,8.39-7.14,0-3.07-.94-5.95-6.13-10.02l-2.88-2.25c-6.89-5.38-9.27-9.77-9.27-14.84,0-6.89,5.76-11.83,14.46-11.83,4.07,0,6.7.62,8.33,1.07.56.13.87.31.87.75,0,.82-.24,2.63-.24,7.51,0,1.38-.19,1.87-.7,1.87-.44,0-.63-.38-.63-1.12,0-.56-.31-2.5-1.63-4.13-.93-1.19-2.75-3.07-6.82-3.07-4.63,0-7.45,2.69-7.45,6.45,0,2.88,1.44,5.07,6.64,9.01l1.76,1.31c7.57,5.71,10.26,10.02,10.26,15.97,0,3.63-1.38,7.96-5.88,10.89-3.13,2-6.64,2.57-9.96,2.57-3.63,0-6.45-.44-9.14-1.64Z"/>
        <path class="cls-1" d="m166.37,143.66c0-9.51,0-11.27-.12-13.27-.13-2.13-.75-3.19-2.13-3.51-.69-.19-1.5-.25-2.25-.25-.63,0-1.01-.13-1.01-.63,0-.38.51-.5,1.51-.5,2.38,0,6.32.2,8.14.2,1.57,0,5.26-.2,7.64-.2.81,0,1.32.13,1.32.5,0,.5-.38.63-1,.63s-1.12.06-1.88.19c-1.69.32-2.19,1.37-2.32,3.57-.12,2-.12,3.76-.12,13.27v11.02c0,6.07,0,11.01.25,13.7.18,1.7.62,2.83,2.5,3.08.88.13,2.26.25,3.19.25.69,0,1.01.19,1.01.5,0,.44-.51.62-1.19.62-4.13,0-8.07-.17-9.76-.17-1.44,0-5.38.17-7.89.17-.82,0-1.26-.17-1.26-.62,0-.32.25-.5,1-.5.94,0,1.7-.12,2.26-.25,1.25-.25,1.63-1.32,1.81-3.14.31-2.63.31-7.57.31-13.64v-11.02Z"/>
        <path class="cls-1" d="m188.42,143.66c0-9.51,0-11.27-.13-13.27-.12-2.13-.63-3.13-2.7-3.57-.49-.13-1.56-.19-2.43-.19-.69,0-1.06-.13-1.06-.57s.44-.56,1.38-.56c3.31,0,7.27.2,8.51.2,3.08,0,5.51-.2,7.64-.2,11.33,0,13.34,6.08,13.34,9.4,0,5.14-2.95,8.2-6.39,10.95,5.14,1.75,11.4,6.2,11.4,13.53,0,6.69-5.2,13.65-16.72,13.65-.75,0-2.56-.13-4.38-.2-1.88-.13-3.76-.17-4.69-.17-.7,0-2.07,0-3.58.05-1.44,0-3.07.13-4.32.13-.81,0-1.25-.17-1.25-.62,0-.32.26-.5,1.01-.5.94,0,1.69-.12,2.26-.25,1.25-.25,1.56-1.63,1.81-3.45.32-2.62.32-7.57.32-13.33v-11.02Zm7.5,1.07c0,.5.2.63.44.69.56.13,1.5.19,2.94.19,2.07,0,3.45-.25,4.52-1.19,1.63-1.31,2.56-3.56,2.56-6.63,0-4.19-2.44-9.7-7.83-9.7-.87,0-1.44,0-2.06.12-.44.13-.57.38-.57,1.06v15.47Zm8.27,5.01c-1.31-.94-2.75-1.38-5.19-1.5-1.13-.07-1.76-.07-2.7-.07-.25,0-.37.13-.37.44v14.84c0,4.13.2,5.2,2.2,6,1.68.69,3.12.75,4.56.75,2.82,0,7.58-1.5,7.58-8.01,0-3.88-1.32-9.14-6.07-12.46Z"/>
      </g>
    </g>
  </g>
</svg>